<?xml version="1.0" encoding="UTF-8"?>
<svg id="Layer_2" data-name="Layer 2" xmlns="http://www.w3.org/2000/svg" viewBox="0 0 1165.46 304.49">
  <defs>
    <style>
      .cls-1 {
        letter-spacing: -.04em;
      }

      .cls-2 {
        opacity: .1;
      }

      .cls-3 {
        letter-spacing: 0em;
      }

      .cls-4 {
        letter-spacing: -.02em;
      }

      .cls-5 {
        fill: #6a4f4d;
      }

      .cls-6, .cls-7, .cls-8 {
        fill: #fff;
      }

      .cls-9 {
        fill: #ff9e2e;
      }

      .cls-10, .cls-11 {
        fill: #ffe7d4;
      }

      .cls-12 {
        fill: #baaa68;
      }

      .cls-13 {
        fill: #dcdcdc;
      }

      .cls-14 {
        fill: #513634;
      }

      .cls-15 {
        fill: #51364d;
      }

      .cls-16 {
        font-size: 50.82px;
      }

      .cls-16, .cls-17 {
        font-family: SourceSansItalic-BoldItalic, 'Source Sans Variable';
        font-variation-settings: 'wght' 700;
      }

      .cls-18 {
        letter-spacing: 0em;
      }

      .cls-17 {
        font-size: 17.45px;
      }

      .cls-19 {
        letter-spacing: 0em;
      }

      .cls-20 {
        letter-spacing: -.02em;
      }

      .cls-21 {
        letter-spacing: -.03em;
      }

      .cls-22 {
        fill: #e75400;
      }

      .cls-22, .cls-11, .cls-7, .cls-23 {
        opacity: .2;
      }

      .cls-24 {
        letter-spacing: 0em;
      }

      .cls-25 {
        letter-spacing: 0em;
      }

      .cls-26 {
        letter-spacing: 0em;
      }

      .cls-27 {
        opacity: .3;
      }

      .cls-28 {
        opacity: .8;
      }

      .cls-29 {
        letter-spacing: 0em;
      }

      .cls-30 {
        font-family: SourceSansRoman-Regular, 'Source Sans Variable';
        font-size: 49.21px;
        font-variation-settings: 'wght' 400;
      }

      .cls-31 {
        letter-spacing: -.06em;
      }

      .cls-32 {
        letter-spacing: -.05em;
      }

      .cls-33 {
        letter-spacing: -.01em;
      }

      .cls-34 {
        fill: #d04000;
      }

      .cls-34, .cls-8 {
        opacity: .4;
      }
    </style>
  </defs>
  <g id="Layer_1-2" data-name="Layer 1">
    <rect class="cls-12" x="38.46" y="100.56" width="1127" height="184" rx="92" ry="92"/>
    <text class="cls-30" transform="translate(335.72 165.38)"><tspan class="cls-1" x="0" y="0">Y</tspan><tspan class="cls-18" x="21.41" y="0">o</tspan><tspan class="cls-24" x="48.37" y="0">-</tspan><tspan x="63.33" y="0">H</tspan><tspan class="cls-18" x="95.41" y="0">o</tspan><tspan class="cls-24" x="122.37" y="0">-</tspan><tspan x="137.33" y="0">Ho!</tspan></text>
    <text class="cls-16" transform="translate(335.24 220.71)"><tspan x="0" y="0">AKX ARE ON THEIR </tspan><tspan class="cls-21" x="410.21" y="0">W</tspan><tspan class="cls-31" x="449.24" y="0">A</tspan><tspan x="473.83" y="0">Y MY CAP’N!</tspan></text>
    <g>
      <path class="cls-14" d="M233.28,63.6c-38.92-12.81-54.3,35.43-54.3,35.43,0,0,18.31,13.29,37.66,19.62,18.41,6.02,41.18,3.08,41.18,3.08,0,0,16.03-44.78-24.54-58.13Z"/>
      <path class="cls-2" d="M142.24,266.35c-59.42,0-139.18,13.44-139.18,18.27s79.75,8.75,139.18,8.75,126.4-3.92,126.4-8.75-66.97-18.27-126.4-18.27Z"/>
      <path class="cls-5" d="M77.41,216.7c-3.46,.14-6.84-.16-10.09-.96-4.03-2.36-6.75-5.76-7.12-10.47-.07-.92-.06-1.88,.05-2.86-1.11,2.36-1.7,4.63-1.54,6.66,.13,1.6,.71,2.94,1.64,4.06-.84-.43-1.67-.91-2.48-1.43-1.91-1.21-3.71-2.64-5.4-4.25,2.26,4.92,5.18,8.96,8.82,11.66-5.72-1.66-10.45-4.07-13.38-7.47-1.57-1.82-2.94-3.81-4.14-5.95,.68,6.13,2.58,11.5,6.02,15.5,.42,.49,.89,.94,1.41,1.37-8.57-.97-15.95-3.27-20.9-7.47-2.47-2.1-4.74-4.45-6.81-7.03,2.36,7.94,6.12,14.65,11.54,19.25,3.76,3.19,9.46,4.68,16.23,4.95-14.99,4.58-27.99,10.53-31.73,17.09-2.75,4.82-3.15,10.14-1.82,15.59,.7-2.31,1.66-4.56,2.91-6.76,5.19-9.12,22.9-17.92,41.41-24.75-3.52,2.47-6.1,5.02-7.35,7.59-2.41,4.97-2.46,10.32-.77,15.7,.54-2.35,1.35-4.66,2.45-6.92,3.58-7.38,14.85-14.98,28.22-21.68l-7.18-11.41Z"/>
      <g>
        <polygon class="cls-9" points="186.28 240.4 224.49 277.7 225.99 276.21 188.61 233.55 186.28 240.4"/>
        <polygon class="cls-8" points="225.33 276.86 225.99 276.21 188.61 233.55 225.33 276.86"/>
        <polygon class="cls-34" points="206.93 256.95 205.6 258.56 186.28 240.4 216.79 270.18 216.79 270.18 217.18 270.57 217.18 270.57 220.31 273.62 220.31 273.62 220.57 273.87 224.49 277.7 225.21 276.99 220.97 273 221.13 272.63 220.89 272.92 217.52 269.76 217.91 268.82 217.3 269.56 214.74 267.15 215.3 265.82 214.44 266.87 211.83 264.41 212.66 262.42 211.37 263.98 208.96 261.71 209.77 259.77 208.51 261.3 206.08 259.01 206.93 256.95"/>
        <path class="cls-5" d="M184.32,227.13c-5.99,4.04-9.42,12.56-5.38,18.55,2.59,3.84,9.25,8.13,15.28,9.65,6.04,1.53,11.98-3.13,11.62-9.35,0-.14-.02-.28-.03-.42-.5-5.19-2.87-11.1-5.17-14.51-4.04-5.99-10.32-7.97-16.31-3.93Z"/>
        <path class="cls-27" d="M203.26,247.59c.02,.24,.04,.48,.06,.72,.1,1.73-.09,3.39-.52,4.95,1.98-1.75,3.21-4.34,3.04-7.27,0-.14-.02-.28-.03-.42-.5-5.19-2.87-11.1-5.17-14.51-1.07-1.59-2.31-2.9-3.65-3.89,2.99,5.82,5.61,13.48,6.28,20.41Z"/>
        <path class="cls-9" d="M242.22,276.62c-10.97-6.33-24.72,1.49-36.2,13.21,6.55-4.21,13.19-7.22,19.68-8.51,2.39,3.71,3.66,7.99,3.45,12.92-.07,1.78-.34,3.6-.78,5.46,2.78-4.35,4.5-8.61,4.66-12.52,.06-1.49-.11-2.88-.47-4.17,3.86,3.34,6.68,7.68,8.15,13.2,.55,2.06,.89,4.24,1.06,6.52,1.63-5.96,2.07-11.46,.87-15.98-.52-1.95-1.33-3.66-2.39-5.13,2.32,.63,4.59,1.56,6.79,2.83,1.85,1.07,3.61,2.35,5.29,3.83-2.69-5.2-6.05-9.3-10.11-11.65Z"/>
        <path class="cls-34" d="M247.05,283.86c-1.45-1.04-3.57-2.24-6.8-2.25,2.32,.63,4.59,1.56,6.79,2.83,1.85,1.07,3.61,2.35,5.29,3.83-1.68-1.48-3.88-3.4-5.28-4.41Z"/>
        <path class="cls-34" d="M241.77,302.72c-.16-2.28,.09-5.25-.2-6.96-.67-3.85-3.4-9.74-9-12.76,3.86,3.34,6.68,7.68,8.15,13.2,.55,2.06,.89,4.24,1.06,6.52Z"/>
        <path class="cls-34" d="M229.16,294.24c.21-4.92,.06-10.66-2.33-14.37-6.48,1.3-14.25,5.76-20.8,9.96,6.55-4.21,13.19-7.22,19.68-8.51,2.39,3.71,3.66,7.99,3.45,12.92Z"/>
        <path class="cls-8" d="M242.22,276.62c-7.33-4.23-15.91-2.13-24.22,3.22,8.92-4.17,18.29-5.06,24.84-1.28,4.06,2.34,6.8,4.5,9.49,9.7-2.69-5.2-6.05-9.3-10.11-11.65Z"/>
      </g>
      <g>
        <polygon class="cls-9" points="110.21 229.64 87.23 277.83 89.12 278.77 117.45 229.64 110.21 229.64"/>
        <polygon class="cls-8" points="88.29 278.36 89.12 278.77 117.45 229.64 88.29 278.36"/>
        <polygon class="cls-34" points="101.21 254.52 99.25 253.78 110.21 229.64 91.86 268.12 91.86 268.12 91.62 268.61 91.62 268.61 89.74 272.56 89.74 272.56 89.58 272.89 87.23 277.83 88.13 278.28 90.54 272.99 90.94 273.02 90.58 272.88 92.49 268.67 93.51 268.74 92.62 268.4 94.07 265.21 95.5 265.3 94.24 264.83 95.72 261.56 97.88 261.71 95.98 260.99 97.35 257.97 99.45 258.12 97.6 257.42 98.98 254.37 101.21 254.52"/>
        <path class="cls-9" d="M75.97,278.6c10.18-7.54,24.73-1.34,37.47,8.99-6.99-3.43-13.93-5.66-20.52-6.21-1.96,3.96-2.72,8.36-1.95,13.23,.28,1.76,.75,3.54,1.4,5.33-3.26-4-5.45-8.04-6.06-11.9-.23-1.47-.22-2.87,0-4.2-3.45,3.76-5.76,8.4-6.59,14.04-.31,2.11-.4,4.31-.3,6.6-2.3-5.74-3.37-11.15-2.69-15.78,.29-2,.91-3.78,1.79-5.37-2.23,.89-4.38,2.07-6.42,3.58-1.72,1.27-3.32,2.75-4.82,4.41,2.08-5.48,4.94-9.93,8.71-12.73Z"/>
        <path class="cls-34" d="M72,286.35c1.33-1.2,3.29-2.63,6.5-3.01-2.23,.89-4.38,2.07-6.42,3.58-1.72,1.27-3.32,2.75-4.82,4.41,1.5-1.66,3.47-3.83,4.74-4.98Z"/>
        <path class="cls-34" d="M79.4,304.49c-.1-2.28-.69-5.2-.59-6.94,.23-3.9,2.26-10.06,7.49-13.7-3.45,3.76-5.76,8.4-6.59,14.04-.31,2.11-.4,4.31-.3,6.6Z"/>
        <path class="cls-34" d="M90.97,294.61c-.77-4.87-1.28-10.59,.68-14.54,6.59,.55,14.81,4.09,21.8,7.52-6.99-3.43-13.93-5.66-20.52-6.21-1.96,3.96-2.72,8.36-1.95,13.23Z"/>
        <path class="cls-8" d="M67.26,291.33c2.08-5.48,4.55-7.93,8.32-10.72,6.08-4.5,15.49-4.69,24.83-1.57-8.87-4.37-17.63-5.48-24.43-.43-3.77,2.79-6.64,7.25-8.71,12.73Z"/>
        <path class="cls-5" d="M94.63,241.47c.95,8.21,9.53,13.38,17.07,10.01,.17-.08,.34-.15,.51-.24,6.21-3.07,12.41-8.79,15.57-13.26,5.53-7.83,5.02-16.56-2.81-22.09-7.83-5.53-20.02-5.77-25.55,2.07-3.54,5.02-5.73,15.31-4.78,23.5Z"/>
        <path class="cls-11" d="M104.7,218.9c2.41-3.42,5.78-5.67,9.59-6.9-5.77-.54-11.54,1.24-14.88,5.97-3.54,5.02-5.73,15.31-4.78,23.5,.34,2.97,1.69,5.54,3.62,7.45-.94-10.67,1.92-23.59,6.45-30.02Z"/>
        <path class="cls-27" d="M130.16,221.83c-.31,3.63-1.63,7.41-3.93,11.1-3.74,6.01-11.33,13.87-19.12,18.3-.21,.12-.42,.23-.63,.34-.57,.29-1.14,.55-1.72,.76,2.24,.4,4.64,.17,6.94-.85,.17-.08,.34-.15,.51-.24,6.21-3.07,12.41-8.79,15.57-13.26,3.82-5.41,4.76-11.25,2.39-16.16Z"/>
      </g>
      <path class="cls-5" d="M235.44,110.85c4.17-2.54,7.01-1.69,10.35-5.58,8.89-10.37,4.42-26.63-6.38-34-2.01-1.37-4.99-2.55-7.37-3.4-.51-8.92-1.11-17.86-4.36-26.26,3.2,.86,5.91,2.14,8.7,3.98,1.82,1.2,3.57,2.72,5.17,4.24-2.57-4.94-5.48-9.35-10.02-12.67-.17-.13-.29-.17-.46-.28,4.58-.99,9.05-1.53,13.75-1.44,3.83,.07,7.65,.65,11.39,1.41-7.35-5.22-15.56-9.15-24.61-9.49-4.33-.16-7.62,.81-11.66,1.9,.02,0-.11-.09-.05-.08-.06-7.29-.64-11.75-6.3-17.5-5.32-5.41-13.95-9.23-21.4-11.67,2.45,1.9,5.42,3.99,7.5,6.32,4.11,4.61,5.86,7.75,8.24,14.39C138.15-16.39,68.78,75.57,54.75,130.77c-15.53,61.09,20.68,107.15,72.46,116.67,51.77,9.52,103.4-3.23,121.16-54.74,8.58-24.88-8.43-57.22-12.93-81.85Z"/>
      <path class="cls-11" d="M54.75,130.77c-10.88,42.79,3.63,78.2,31.1,98.85-22.83-21.72-33.91-55.61-23.82-95.92,10.97-43.8,54.73-110.14,106.03-121.25-54.57,5.22-101.98,73.75-113.31,118.32Z"/>
      <path class="cls-11" d="M127.21,247.44c4.26,.78,8.51,1.41,12.75,1.88-17.41-10.81-30.98-26.39-39.56-45.01,1.41,6.09,3.23,12.17,5.11,18.03-12.91-17.91-20.61-42.16-20.43-63.95,.12-14.09,2.52-25.75,8.27-38.26-1.67,2.75-3.27,5.32-4.67,8.11-5.31,10.62-8.05,22.08-8.62,33.92-7.12-28.53,10.6-60.37,26.22-82.97-3.28-4.04-5.51-8.83-6.8-13.75,22.57,2.22,48.65-23.06,68.02-36.39,9.01-6.2,31.79-8.14,38.7-9.24C137-14.86,68.67,76.03,54.75,130.77c-15.53,61.09,20.68,107.15,72.46,116.67Z"/>
      <path class="cls-27" d="M235.44,110.85c2.22-1.35,4.07-1.74,5.82-2.4-.3-1.12-.58-2.22-.82-3.3-2.99-1.05-11.64,5.57-14.82,4.78,1.15,9.75,3.12,19.27,4.98,28.88,8.48,9.19,14.32,20.02,15.47,32.63,1.13,12.46-3.71,24.36-12.04,33.51,3.45-8.99,5.32-17.84,5.06-27.5-.07-2.53-.49-5.12-.92-7.49,.6,10.06-1.97,21.03-6.01,29.86-6.25,13.64-14.39,27.06-25.91,36.5,2.68-4.61,5.09-8.99,7.35-13.82-12.79,13.68-29.66,21.92-47.44,27.62,36.91-2.15,68.98-19,82.21-57.4,8.58-24.88-8.43-57.22-12.93-81.85Zm5.41-38.5c-.47-.37-.94-.73-1.44-1.07-2.01-1.37-4.99-2.55-7.37-3.4-.31-5.45-.66-10.9-1.62-16.24-.8,5.07-1.56,10.16-2.26,15.25,1.31,.26,13.73,11.55,15,11.96-.07-1.5-.99-3.82-2.3-6.49Z"/>
      <g>
        <path class="cls-5" d="M157.12,25.89c-25.77-11.86-55.3,.09-63.97,21.82-8.76,21.83,4.8,44.74,28.46,55.67,23.73,10.78,49.93,6.09,60.75-14.8,10.79-20.75,.57-50.92-25.24-62.69Z"/>
        <path class="cls-11" d="M159.94,29.89c6.19,2.82,11.59,6.57,16.16,10.94-4.8-6.15-11.17-11.38-18.97-14.94-21.39-9.85-45.36-3.28-57.86,11.65,15.18-12.95,39.07-17.59,60.67-7.65Z"/>
        <path class="cls-5" d="M157.12,25.89c-25.77-11.86-55.3,.09-63.97,21.82-8.76,21.83,4.8,44.74,28.46,55.67,23.73,10.78,49.93,6.09,60.75-14.8,10.79-20.75,.57-50.92-25.24-62.69Z"/>
        <path class="cls-11" d="M159.94,29.89c6.19,2.82,11.59,6.57,16.16,10.94-4.8-6.15-11.17-11.38-18.97-14.94-21.39-9.85-45.36-3.28-57.86,11.65,15.18-12.95,39.07-17.59,60.67-7.65Z"/>
        <path class="cls-10" d="M238.14,72.04c-19.16-8.82-41.1,.07-47.55,16.22-6.51,16.23,3.57,33.26,21.16,41.38,17.64,8.02,37.12,4.53,45.16-11,8.02-15.43,.42-37.85-18.76-46.6Z"/>
        <path class="cls-22" d="M242.27,74.24c12.18,10.67,16.1,28,9.52,40.64-8.04,15.53-27.52,19.01-45.16,11-1.98-.92-3.87-1.95-5.65-3.08,3.12,2.67,6.74,4.99,10.76,6.84,17.64,8.02,37.12,4.53,45.16-11,7.42-14.27,1.48-34.52-14.63-44.4Z"/>
        <path class="cls-10" d="M150.25,29.57c-25.77-11.86-55.3,.09-63.97,21.82-8.76,21.83,4.8,44.74,28.46,55.67,23.73,10.78,49.93,6.09,60.75-14.8,10.79-20.75,.57-50.92-25.24-62.69Z"/>
        <path class="cls-22" d="M127.21,108.6c-23.66-10.93-36.84-34.67-27.5-57.78,4.86-12.08,15.48-21.46,28.2-25.92-18.54,.39-35.43,10.93-41.63,26.48-8.76,21.83,4.8,44.74,28.46,55.67,8.16,3.71,16.6,5.58,24.62,5.61-4.07-.89-8.15-2.24-12.15-4.06Z"/>
        <path class="cls-15" d="M167.46,70.64c-.09,.26-.19,.51-.3,.76-1.88,4.1-6.72,5.89-10.81,4.02-4.1-1.88-5.89-6.72-4.02-10.81s6.72-5.89,10.81-4.02c.6,.27,1.14,.62,1.64,1.01-1.41-1.97-3.33-3.61-5.69-4.69-7.22-3.31-15.75-.14-19.05,7.08s-.14,15.75,7.08,19.05,15.75,.14,19.05-7.08c.79-1.73,1.21-3.53,1.29-5.32Z"/>
        <g>
          <path class="cls-6" d="M138.28,77.66c1.95,.9,4.26,.04,5.16-1.92,.9-1.95,.04-4.26-1.92-5.16-1.95-.9-4.26-.04-5.16,1.92-.9,1.95-.04,4.26,1.92,5.16Z"/>
          <path class="cls-6" d="M133.14,76.63c.61,.28,1.33,.01,1.61-.6,.28-.61,.01-1.33-.6-1.61-.61-.28-1.33-.01-1.61,.6-.28,.61-.01,1.33,.6,1.61Z"/>
        </g>
        <path class="cls-15" d="M225.03,98.21c-.82-.24-1.66-.3-2.46-.22,.12,.02,.24,.05,.36,.08,1.95,.56-5.11,4.48-4.55,2.52,.08-.29,.2-.55,.34-.8-.78,.76-1.38,1.73-1.7,2.85-.99,3.44,1,7.03,4.44,8.01s7.03-1,8.01-4.44c.99-3.44-1-7.03-4.44-8.01Z"/>
        <g>
          <path class="cls-6" d="M217.07,108.92c.85,.39,1.84,.02,2.23-.83,.39-.85,.02-1.84-.83-2.23-.85-.39-1.84-.02-2.23,.83-.39,.85-.02,1.84,.83,2.23Z"/>
          <path class="cls-6" d="M214.84,108.48c.26,.12,.58,0,.7-.26,.12-.26,0-.58-.26-.7-.26-.12-.57,0-.7,.26-.12,.26,0,.58,.26,.7Z"/>
        </g>
      </g>
      <g class="cls-28">
        <path class="cls-27" d="M195.97,168.71c-1.68,1.11-1.93,3.81-.84,5.69,1.1,1.89,3.07,2.36,4.66,1.36,1.58-1.01,2.23-3.17,1.23-5.17-.99-2-3.37-3-5.04-1.88Z"/>
        <path class="cls-27" d="M183.65,181.34c-.65,.35-.8,1.3-.42,1.99,.38,.69,1.1,.89,1.7,.58,.6-.32,.87-1.05,.54-1.78-.33-.72-1.18-1.15-1.83-.8Z"/>
        <path class="cls-27" d="M206.42,160.9c-.53-.97-1.7-1.42-2.5-.82-.8,.6-.86,1.97-.28,2.89,.58,.92,1.56,1.08,2.31,.54,.74-.55,1-1.63,.47-2.6Z"/>
        <path class="cls-27" d="M195.69,160.53c-.67-1.17-2.16-1.73-3.16-1.01-1.01,.71-1.09,2.36-.35,3.46,.74,1.11,1.97,1.33,2.92,.68,.94-.65,1.27-1.96,.6-3.13Z"/>
        <path class="cls-27" d="M184.33,157.83c.49-.34,.65-1,.28-1.59-.37-.59-1.17-.87-1.7-.49-.53,.37-.56,1.21-.15,1.77,.41,.56,1.07,.65,1.57,.32Z"/>
        <path class="cls-27" d="M184.38,152.86c.3-.22,.39-.63,.15-.99-.24-.36-.73-.52-1.06-.28-.32,.23-.33,.76-.07,1.1,.26,.34,.67,.39,.97,.17Z"/>
        <path class="cls-27" d="M187.26,167.14c-.75-1.37-2.49-2.07-3.71-1.3-1.22,.77-1.38,2.64-.55,3.93,.83,1.3,2.29,1.61,3.43,.92,1.14-.7,1.58-2.18,.83-3.56Z"/>
      </g>
      <path class="cls-5" d="M233.28,63.6c-38.92-12.81-54.3,35.43-54.3,35.43,0,0,29.49-2.59,47.1,5.51,17.62,8.04,31.74,17.19,31.74,17.19,0,0,16.03-44.78-24.54-58.13Z"/>
      <path class="cls-11" d="M233.28,63.6c-8.96-2.95-16.68-2.66-23.24-.47,4.62-.65,9.9-.38,15.94,1.16,41.18,10.54,31.84,57.44,31.84,57.44,0,0,16.03-44.78-24.54-58.13Z"/>
      <g>
        <path class="cls-11" d="M218.03,207.17c-3.85,3.77-8.51,6.78-8.45,6.78,.06,0-3.2-2.7-5.6-6.43-.09-.13-.17-.27-.26-.42-.12-.19-.23-.39-.34-.58-1.45-2.4-2.42-5.12-2.6-7.71-.08,2.96,.83,6.18,2.36,9-1.35,1.61-2.85,3.17-4.42,4.63-5.49,5.3-11.9,9.36-11.82,9.37,0-.04-2.44-2.53-5-6.27-.02-.04-.05-.07-.07-.11-1.16-1.69-2.35-3.69-3.33-5.81-1.36-2.76-2.35-5.75-2.83-8.69,1.13-1,2.28-2.06,3.4-3.19,3.91-3.78,7.47-8.16,9.7-12.41-2.24,3.5-5.41,7.01-8.87,10.07-1.48,1.36-3.02,2.63-4.46,3.75-.05,.04-.11,.08-.16,.12-4.29,3.31-7.97,5.55-7.98,5.59,0-.05-1.97-2.28-4.16-5.69-.06-.09-.12-.19-.18-.28-1.27-2-2.62-4.43-3.65-7.05-1.76-4.13-2.73-8.7-2.56-12.91-.64,4.93,.29,10.51,2.26,15.46,.82,2.24,1.86,4.34,2.9,6.2-1.43,2.19-3.08,4.33-4.85,6.31-1.55,1.82-3.2,3.5-4.7,4.93-.09,.09-.19,.18-.28,.28-3.37,3.18-6.14,5.29-6.14,5.34,.1,.01-5.58-5.86-9.09-13.35-.8-1.63-1.51-3.32-2.08-5.03-.08-.22-.15-.44-.21-.66-.82-2.59-1.34-5.25-1.49-7.78-.06,2.73,.3,5.63,1.02,8.5-.73,1.12-1.53,2.21-2.36,3.23-3.91,5.05-8.72,8.85-8.66,8.86,.07,.01-4.5-4.9-7.4-11.12-1.76-3.54-2.96-7.49-3.26-11.18,.03,4.34,1.29,9.17,3.28,13.43,2.85,6.43,7.31,11.51,7.3,11.57,0-.06,4.59-4.11,8.36-9.43,1.06-1.44,2.06-2.97,2.95-4.55,.64,2.35,1.5,4.67,2.53,6.87,3.45,7.76,8.99,13.8,8.98,13.87,0-.05,3.06-2.64,6.62-6.47,.6,3.17,1.66,6.38,3.06,9.37,3.36,7.61,8.78,13.67,8.77,13.74,0-.07,5.64-4.45,10.38-10.29,2.52-2.96,4.79-6.32,6.46-9.7,2.7,4.39,5.49,7.37,5.48,7.42,.01-.07,6.15-4.42,11.46-10.02,1.96-1.99,3.8-4.15,5.4-6.36,2.33,4.31,5.99,7.53,5.92,7.53,.01-.06,4.5-3.23,8.24-7.19,2.56-2.63,4.79-5.61,6.04-8.41-1.31,2.34-3.31,4.75-5.58,6.9Zm-42.89,17.46c-4.93,5.51-10.85,9.58-10.78,9.6,.09,.02-5.45-5.88-8.86-13.25-1.14-2.31-2.06-4.75-2.69-7.2,1.22-1.33,2.49-2.8,3.7-4.36,2.11-2.6,4.06-5.46,5.66-8.36,2.36,4.08,4.66,6.81,4.65,6.86,.02-.06,4.05-2.77,8.56-6.71,.3,3.65,1.37,7.43,2.95,10.87,.77,1.78,1.67,3.46,2.6,4.98-1.59,2.65-3.59,5.25-5.77,7.58Z"/>
        <path class="cls-2" d="M180.34,216.07c-.19-.33-.37-.66-.56-1-.06-.11-.12-.21-.17-.32-.16-.3-.31-.6-.46-.91-.07-.14-.14-.28-.21-.42-.21-.45-.42-.9-.62-1.36-.18-.38-.34-.77-.51-1.16-.04-.1-.08-.2-.13-.3-.15-.37-.3-.75-.44-1.13,0-.02-.02-.04-.02-.06-.15-.4-.28-.8-.41-1.2-.03-.1-.07-.2-.1-.3-.11-.36-.22-.72-.32-1.08-.01-.05-.03-.11-.05-.16-.1-.39-.2-.77-.29-1.16-.03-.14-.07-.29-.1-.43-.02-.1-.05-.2-.07-.29,.26,3.68,1.31,7.51,2.89,10.99,.39,.91,.82,1.79,1.26,2.64,.3-.45,.59-.91,.86-1.37-.18-.29-.35-.59-.53-.9-.01-.02-.03-.05-.04-.07Zm-19.13-13.38c-.04,.07-.09,.15-.14,.22-.1,.17-.2,.33-.31,.5-.12,.19-.23,.37-.35,.56-.08,.13-.17,.26-.25,.39-.21,.32-.42,.64-.63,.95-.03,.04-.06,.08-.09,.13-.2,.29-.39,.57-.6,.86-.05,.08-.11,.15-.16,.23-.18,.25-.36,.51-.55,.76-.06,.08-.11,.15-.17,.23-.19,.26-.39,.52-.59,.77-.05,.06-.09,.12-.14,.18-.24,.31-.49,.63-.74,.93-.87,1.13-1.77,2.2-2.67,3.21-.09,.1-.17,.19-.26,.29-.17,.19-.34,.37-.5,.56-.09,.1-.18,.2-.27,.3,.2,.77,.44,1.55,.69,2.31,.75-.93,1.51-1.92,2.24-2.94,2.25-3.02,4.3-6.39,5.84-9.75,2.44,4.63,5.09,7.83,5.07,7.88,.01-.05,3.96-2.93,8.26-7.02,.25-.24,.5-.5,.75-.74-.13-.77-.23-1.55-.3-2.31-.84,.73-1.66,1.42-2.44,2.06-.02,.01-.03,.02-.05,.04-.25,.2-.5,.41-.74,.6-.01,.01-.03,.02-.04,.03-.21,.17-.42,.33-.62,.49-.05,.04-.1,.08-.15,.12-.2,.16-.39,.31-.58,.45-.06,.05-.12,.1-.19,.14-.14,.11-.28,.21-.41,.32-.06,.05-.12,.09-.18,.14-.16,.12-.32,.24-.47,.36-.07,.05-.14,.1-.21,.16-.11,.08-.22,.16-.33,.24-.08,.06-.16,.12-.24,.18-.1,.08-.2,.15-.3,.22-.05,.04-.1,.08-.16,.11-.12,.09-.24,.17-.35,.25-.03,.02-.06,.04-.09,.06-.1,.07-.2,.14-.29,.21-.01,0-.02,.02-.03,.02-.23,.16-.4,.29-.52,.38-.04,.03-.08,.06-.11,.08,0,0-.02,.01-.02,.02-.02,.02-.04,.03-.04,.04,.01-.05-2.29-2.78-4.65-6.86-.3,.55-.62,1.1-.95,1.64,0,0,0,0,0,0Zm16.67-1.46c3.87-4.03,7.36-8.76,9.33-13.25-.02,.04-.05,.08-.08,.12-.23,.36-.47,.71-.71,1.07-.03,.04-.05,.07-.07,.11-.26,.37-.52,.74-.79,1.1-.07,.09-.13,.18-.2,.27-.27,.36-.55,.72-.83,1.08-.04,.05-.07,.09-.11,.14-.26,.33-.53,.65-.8,.98-.07,.09-.14,.17-.22,.26-.3,.35-.59,.7-.9,1.04-.07,.07-.13,.15-.2,.22-.28,.31-.56,.62-.85,.93-.05,.06-.11,.12-.16,.17-.32,.34-.65,.68-.98,1.02-.07,.08-.15,.15-.22,.23-.34,.34-.68,.68-1.03,1.02-.25,.25-.5,.5-.75,.74-.06,.06-.12,.11-.18,.17-.25,.24-.5,.48-.75,.71-.03,.02-.05,.05-.08,.07-.25,.24-.5,.47-.76,.69-.02,.02-.04,.04-.06,.06-.28,.25-.55,.5-.83,.74,.12,.71,.26,1.43,.44,2.15,.6-.6,1.2-1.21,1.79-1.85Zm-16.98,.82c.34-.49,.68-.98,1-1.47-.03-.06-.07-.13-.1-.19-.2-.36-.41-.74-.61-1.12-.04-.08-.08-.15-.12-.23-.23-.44-.45-.9-.67-1.36-.02-.04-.04-.08-.06-.13-.23-.49-.46-.99-.67-1.5,0-.02-.02-.05-.03-.07-.22-.53-.44-1.06-.64-1.61-.49-1.23-.92-2.51-1.27-3.8-.35-1.28-.63-2.58-.83-3.88,.07,3.85,.94,7.89,2.38,11.57,.48,1.32,1.03,2.58,1.61,3.77Zm61.73,.12c-.1,.17-.2,.33-.3,.5-.1,.16-.2,.33-.31,.49-.1,.16-.2,.31-.3,.47-.13,.2-.27,.4-.41,.6-.11,.16-.22,.32-.34,.48-.19,.26-.39,.53-.6,.79-.1,.13-.21,.26-.31,.39-.15,.19-.31,.38-.47,.57-.11,.13-.22,.26-.34,.39-.17,.2-.34,.39-.52,.59-.1,.11-.2,.23-.31,.34-.28,.3-.56,.6-.85,.9-1.41,1.5-2.93,2.88-4.28,4.03,0,0,0,0-.01,.01-.22,.19-.43,.37-.64,.54-.02,.01-.03,.03-.05,.04-.19,.16-.38,.32-.57,.47-.02,.02-.04,.03-.06,.05-.18,.14-.35,.28-.51,.41-.02,.02-.04,.03-.06,.05-.16,.13-.32,.25-.46,.36-.01,.01-.02,.02-.04,.03-.94,.74-1.55,1.18-1.55,1.2,0,0-.1-.11-.31-.31-.91-.9-3.71-3.7-5.62-7.23-.15,.2-.3,.41-.45,.61,0,.01-.02,.03-.03,.04,0,0,0,0,0,0-.14,.19-.28,.37-.43,.56-.07,.09-.14,.18-.21,.27-.11,.14-.22,.28-.33,.42-.11,.13-.21,.27-.32,.4-.09,.11-.18,.22-.27,.33-.13,.16-.26,.32-.4,.48-.08,.09-.15,.18-.23,.27-.15,.18-.3,.35-.46,.53-.07,.08-.13,.15-.2,.23-.17,.19-.34,.38-.51,.56-.06,.06-.11,.13-.17,.19-.19,.2-.37,.4-.56,.61-.04,.05-.09,.09-.13,.14-.23,.25-.47,.49-.71,.73-5.31,5.61-11.45,9.95-11.46,10.02,0-.04-2.04-2.24-4.33-5.63-.04-.06-.08-.12-.12-.18-.05-.07-.1-.15-.14-.22-.28-.43-.57-.87-.85-1.33,0,0,0,0,0,0-.01-.02-.02-.04-.03-.06-.25,.51-.53,1.03-.81,1.54,0,0,0,0,0,0-.12,.21-.24,.43-.36,.64-.08,.13-.15,.27-.23,.4-.22,.38-.45,.76-.69,1.14-.08,.12-.16,.25-.24,.37-.17,.26-.33,.52-.5,.78-.1,.15-.21,.31-.31,.46-.15,.23-.31,.45-.47,.68-.11,.16-.23,.32-.34,.48-.16,.22-.32,.44-.48,.65-.11,.15-.23,.31-.34,.46-.18,.23-.35,.46-.53,.68-.1,.13-.2,.26-.31,.39-.28,.35-.57,.7-.86,1.04-4.74,5.84-10.37,10.22-10.38,10.29,0-.02-.51-.61-1.31-1.62,0,0,0,0,0-.01-.06-.07-.11-.14-.17-.22-.04-.05-.07-.09-.11-.14-.03-.04-.07-.09-.1-.13-.06-.08-.12-.15-.18-.23-.02-.03-.04-.05-.06-.08-.08-.1-.16-.2-.24-.31,0,0-.01-.02-.02-.03-1.88-2.49-4.6-6.47-6.58-10.97-.23-.49-.44-.98-.65-1.48-.06-.13-.11-.26-.16-.4-.2-.49-.39-.98-.57-1.48,0,0,0-.02,0-.02-.19-.53-.37-1.07-.54-1.6-.03-.09-.06-.19-.09-.28-.14-.46-.27-.92-.4-1.37-.02-.07-.04-.14-.06-.2,0,0,0,0,0,0-.22-.84-.42-1.69-.57-2.53-.44,.47-.88,.93-1.3,1.36,0,0-.01,.01-.02,.02-.41,.42-.81,.82-1.19,1.2-.02,.02-.04,.04-.07,.07-.36,.36-.71,.7-1.04,1.02-.04,.03-.07,.07-.11,.1-.14,.13-.28,.26-.41,.39-.02,.02-.04,.04-.06,.06-.14,.13-.27,.26-.4,.38-.05,.05-.1,.09-.15,.14-.08,.07-.16,.15-.23,.22-.05,.05-.1,.1-.15,.14-.1,.09-.19,.17-.28,.26-.07,.06-.13,.12-.2,.18-.03,.02-.05,.05-.08,.07-.47,.43-.79,.71-.9,.82,0,0,0,0-.01,.01-.02,.02-.03,.03-.03,.04,.02-.07-5.53-6.12-8.98-13.87-.24-.52-.47-1.04-.7-1.57-.07-.17-.13-.33-.2-.5-.15-.36-.29-.72-.42-1.08-.09-.23-.17-.46-.25-.69-.11-.3-.21-.6-.31-.9-.09-.27-.17-.54-.26-.81-.04-.12-.08-.23-.11-.35-.08-.24-.14-.49-.21-.74-.02-.08-.05-.15-.07-.23-.01,.02-.03,.05-.04,.07-.02,.04-.04,.08-.07,.12-.13,.22-.26,.44-.4,.67-.07,.12-.14,.24-.21,.36-.17,.28-.35,.56-.52,.83-.07,.1-.13,.21-.2,.31-.16,.24-.32,.48-.48,.72-.09,.14-.18,.27-.27,.41-.25,.36-.5,.72-.76,1.07-.82,1.16-1.68,2.26-2.52,3.26,0,0,0,.01-.01,.02-.11,.13-.22,.26-.32,.38-.01,.02-.03,.03-.04,.05-.1,.11-.19,.22-.29,.33-.03,.03-.05,.06-.08,.09-.09,.1-.18,.21-.27,.31-.03,.03-.06,.07-.08,.1-.08,.09-.16,.18-.24,.27-.04,.04-.08,.09-.11,.13-.07,.08-.14,.16-.22,.24-.04,.05-.09,.1-.13,.14-.07,.08-.14,.15-.2,.22-.04,.05-.09,.1-.13,.15-.06,.06-.12,.12-.17,.19-.05,.06-.11,.12-.16,.17-.05,.05-.09,.1-.13,.14-.06,.07-.12,.13-.19,.2-.04,.04-.07,.07-.11,.11-.07,.07-.14,.15-.21,.22-.02,.02-.04,.04-.06,.06-.08,.08-.16,.17-.24,.25,0,0-.01,.01-.02,.02-1.43,1.47-2.42,2.36-2.42,2.39,0-.02-.32-.4-.85-1.07-.02-.02-.03-.04-.05-.07-.03-.04-.07-.08-.1-.13-.04-.05-.07-.09-.11-.14-.02-.03-.04-.05-.06-.08-.05-.07-.1-.13-.16-.21-.01-.01-.02-.03-.03-.04-.06-.08-.13-.17-.2-.26,0,0-.01-.02-.02-.03-.07-.09-.14-.19-.22-.29,0,0,0-.01-.01-.02-.08-.11-.16-.21-.24-.32,0,0,0,0,0,0-.17-.23-.35-.48-.53-.73,0,0,0,0,0,0-.09-.13-.18-.26-.27-.39,0,0-.01-.02-.02-.03-.09-.13-.18-.25-.27-.39-.01-.02-.03-.04-.04-.06-.08-.12-.17-.25-.25-.38-.01-.02-.03-.04-.04-.06-.09-.13-.17-.26-.26-.39-.02-.04-.05-.08-.07-.11-.08-.12-.15-.23-.23-.35-.03-.05-.06-.1-.09-.15-.07-.11-.14-.22-.21-.34-.03-.05-.06-.1-.09-.14-.07-.12-.14-.23-.22-.35-.04-.06-.07-.12-.11-.18-.07-.11-.13-.22-.2-.33-.05-.08-.09-.15-.14-.23-.06-.1-.11-.19-.17-.29-.06-.1-.11-.2-.17-.3-.04-.08-.09-.16-.13-.24-.06-.11-.13-.23-.19-.35-.04-.07-.08-.14-.11-.21-.07-.13-.14-.26-.21-.4-.03-.05-.06-.11-.09-.16-.08-.15-.15-.29-.23-.44-.02-.04-.05-.09-.07-.13-.09-.18-.18-.36-.27-.54,0-.01-.01-.03-.02-.04-.09-.18-.18-.37-.26-.56,0-.01-.01-.03-.02-.04-.09-.2-.18-.4-.27-.6-.99-2.11-1.8-4.37-2.36-6.63,.44,3.36,1.51,6.86,2.97,10.03,2.72,6.21,6.91,11.08,6.91,11.14,0-.06,4.2-4.03,7.61-9.25,1.35-1.97,2.58-4.12,3.59-6.32,.61,3.26,1.7,6.55,3.12,9.59,3.31,7.47,8.53,13.27,8.52,13.34,0-.06,3.29-3.06,6.87-7.37,.53,3.58,1.68,7.27,3.26,10.67,3.22,7.32,8.33,13.13,8.32,13.2,0-.07,5.14-4.4,9.42-10.14,2.69-3.46,5.07-7.45,6.58-11.36,2.8,5.08,6.1,8.67,6.09,8.73,.01-.07,5.63-4.35,10.47-9.87,2.36-2.59,4.53-5.47,6.24-8.36,.13,.27,.27,.54,.42,.8,2.16,4.23,5.66,7.43,5.64,7.47-.05,0,4.13-3.12,7.59-7.03,2.56-2.78,4.74-5.97,5.81-8.9-.03,.05-.06,.09-.09,.14Z"/>
      </g>
      <g>
        <path class="cls-5" d="M272.4,62.25c1.73,7.56,3.73,10.7,7.27,16.97-14.23-11.98-30.11-22.89-47.11-30.61,2.21,5.16,4.91,10.15,8.27,14.61-9.23-3.48-18.72-5.41-28.47-6.72,8.59,9.99,16.72,18.64,26.41,27.76-8.81-6.79-17.68-13.49-26.33-20.48,11.22,13,47.67,38.19,44.78,54.22-.32,1.77-2.29,3.69-3.37,5.14-12.89,9.62-25.78,11.1-37.1,23.63-.05,1.1-.84,2.29-1.47,3.23l-1.18,1.2c16.87,10.46,86.19-12.34,90.11-25.25,9.21-30.34-18.21-44.81-31.81-63.7Z"/>
        <path class="cls-27" d="M232.23,147.3c-5.9,.32-11.72,1.63-17.12,4.02-.15,.07-.3,.14-.45,.21,16.64,9.03,77.11-10.03,88.02-22.99-24.79,14.64-44.07,17.31-70.46,18.76Z"/>
        <path class="cls-11" d="M268.86,123.82c-.23,.26-.48,.51-.73,.77,.26-.25,.5-.51,.73-.77Zm12.4-48.6c2.76,2.06,5.72,4.04,8.41,6.28-.38-.42-.77-.87-1.17-1.34-5.66-5.97-11.62-11.7-16.09-17.91,1.73,7.56,3.73,10.7,7.27,16.97-14.23-11.98-30.11-22.89-47.11-30.61,2.21,5.16,4.91,10.15,8.27,14.61-9.16-3.46-18.58-5.38-28.26-6.69,6.77,8.61,16.8,17.67,25.63,27.18,.19,.18,.38,.36,.57,.54-.08-.06-.16-.13-.25-.19,7.06,7.64,13.31,15.59,16.47,23.85,1.88,3.6,2.78,7.01,2.22,10.08-.32,1.77-2.29,3.69-3.37,5.14-2.49,1.86-4.98,3.41-7.47,4.81-3.37,2.31-7.12,4.18-10.46,5.32-.64,.32-1.28,.64-1.91,.96,8.97-1.41,28.08-12.27,28.16-17.35,.36-22.44-31.11-39.86-43.09-56.73,8.4,1.69,16.41,3.5,24.59,6.67,8.86,10.92,38.77,41.86,25.18,57.02,15.28-16.9-16.05-50-25.6-64.49,14.28,6.34,27.06,15.14,39.62,24.42,5.04,10.03,16.3,24.99,9.16,37.39-4.05,7.04-15.86,13.88-23.52,16.94,6.81-.92,22.37-10.55,24.77-15.12,9.46-18-4.55-33.49-12.02-47.74Z"/>
        <path class="cls-11" d="M255.08,128.4c2.77-1.13,6.66-3.53,7.62-4.94,12.91-18.93-28.36-48.24-39.17-62.64,4.93,0,9.43,.33,14.31,1.32-8.28-2.82-16.77-4.47-25.46-5.65,8.59,9.99,16.72,18.64,26.41,27.76,0,0,0,0,0,0,0,0,0,0,0,0-.39-.3-.78-.6-1.17-.9-2.89-2.22-5.78-4.43-8.66-6.65-3.46-2.66-6.92-5.33-10.34-8.03-2.04-1.61-4.08-3.22-6.1-4.86,.63,.73,1.34,1.51,2.12,2.31,4.81,4.96,12.2,11.23,19.49,17.93,8.56,7.85,16.98,16.28,20.92,23.9,1.87,3.58,2.75,6.98,2.2,10.04-.32,1.77-2.29,3.69-3.37,5.14-12.89,9.62-25.78,11.1-37.1,23.63,0,.02,0,.04,0,.07,9.02-9.61,20.5-10.23,33.64-16.39,1.54-.72,3.11-1.4,4.69-2.04Z"/>
      </g>
      <g>
        <g>
          <g>
            <g>
              <path class="cls-9" d="M143.93,122.14c-1.31-.15-27.46,14.43,2.05,22.48,6.16,1.77,26.54,2.37,48.04,4.72,21.07,2,43.27,5.75,43.15,5.72-.02,.11-12.41-7.93-31.04-15.85-18.4-7.99-43.05-15.86-62.2-17.07Z"/>
              <path class="cls-2" d="M149.05,142.13c-16.76-4.78-16.04-11.18-11.62-16.13-6.27,4.93-10.91,13.18,8.54,18.63,6.58,1.85,29.23,2.51,52.1,5.12-23.74-4.16-43.59-6.04-49.03-7.62Z"/>
            </g>
            <path class="cls-13" d="M155.75,124.41c-7.3-1.26-14.06,.54-17.29,4.75-2.82,3.71-2.63,8.2,9.3,11.65,4.91,1.42,21.02,1.98,37.55,3.47,16.27,1.29,32.96,3.51,32.9,3.49,.53-.04-32.97-18.63-62.46-23.36Z"/>
          </g>
          <g>
            <path class="cls-9" d="M250.6,125.55c-3.16-6.98-15.12-5.71-26.82-4.25-11.94,1.37-23.62,2.93-31.94-5.52-8.73-8.61-22.2-7.38-31.89-3.58-9.95,3.73-16.11,10.02-16.25,9.92,13.11,.9,32.53,7.81,49.97,17.38,17.62,9.44,33.25,21.54,43.04,29.93,.59,.17,19.67-32.91,13.88-43.86Z"/>
            <path class="cls-8" d="M250.6,125.55c-3.16-6.98-15.12-5.71-26.82-4.25-11.94,1.37-23.62,2.93-31.94-5.52-8.93-8.82-23.04-7.34-32.76-3.25,10.26-2.43,24.02-1.87,31.6,5.77,8.21,8.42,18.37,8.82,28.36,9.22,9.81,.34,19.44,.66,22.26,7.46,5.06,10.58-4.11,34.55-4.6,34.43,.59,.17,19.67-32.91,13.88-43.86Z"/>
            <path class="cls-7" d="M250.6,125.55c-3.16-6.98-15.12-5.71-26.82-4.25-11.94,1.37-23.62,2.93-31.94-5.52-8.01-7.93-20.37-7.56-29.74-4.36,9.86-2.38,22.11-1.91,29.63,5.62,8.25,8.45,18.92,7.18,30.08,5.81,10.94-1.43,22.38-2.96,27.14,3.42,3.13,4.17,1.9,12.67-1.05,20.9,3.17-8.37,4.87-17.09,2.69-21.61Z"/>
            <path class="cls-23" d="M176.56,114.8s-2.66,1.24,.02,2.25c1.14,.41,7.36,.59,7.37,.61,.01,0-4.28-2.46-7.4-2.86Z"/>
          </g>
        </g>
        <path class="cls-2" d="M145.51,132.95c.39-.54,.84-1.04,1.34-1.51,.3,.01,.59,.03,.89,.05,8.48,.51,17.39,2.1,25.8,4.13-7.73-2.63-15.9-4.88-23.78-6.14-.02,0-.04,0-.06,0,3.52-1.83,8.24-2.49,13.23-1.75,2.9,.39,5.84,.92,8.79,1.55-4.41-1.7-8.73-3.15-12.84-4.3-1.05-.2-2.1-.39-3.15-.56-7.3-1.26-14.06,.54-17.29,4.75-2.65,3.49-2.64,7.67,7.31,11.03-2.47-2.38-1.92-4.94-.25-7.24Z"/>
      </g>
      <g>
        <g>
          <path class="cls-5" d="M75.1,120.23c-11.21-12.51-23.78-23.97-28.83-23.71-11.93,.2-24.12,10.12-32.35,20.11-8.13,9.65-12.56,19.37-12.9,19.88,.35-.36,5.4-5.96,12.7-11.58C4.42,140.68,.02,156.66,0,156.6c.01,.02,4.19-4.32,10.69-9.33-3.22,14.22-4,26.96-4.01,26.94-.05,.02,8.24-13.3,19.19-22.56-8.14,9.58-13.43,20.13-13.43,20.11,.04,.08,4.89-7.45,12.34-14.75,7.33-7.38,17.24-14.53,24.65-15.56,1.62-.25,3.6-.44,5.82-.53,7.78-.19,16.88,1.09,24.04,2.54,2.41-2.08,4.1-4.87,4.78-7.99l.83-3.82c-2.98-3.66-6.33-7.59-9.8-11.43Z"/>
          <path class="cls-2" d="M16.4,122.91c-6.29,12.02-8.99,23.13-9.01,23.1,.02,.09,6.89-5.3,16.21-9.5,9.22-4.36,20.87-7.53,28.19-6.59-8.91-1.25-27.37,6.78-38.94,15.73-2.48,11.59-3.26,20.88-3.27,20.87,.04,.07,4.78-6.89,12.03-13.7,7.14-6.88,16.78-13.61,24.19-14.81,3.66-.66,14.83,.4,28.85,4.56-11.26-2.02-25.02-2.14-31.99-.58-7.32,1.36-17.01,9-24.1,16.77-7.22,7.69-11.83,15.52-11.88,15.44,.02,.02,.79-12.72,4.01-26.94C4.19,152.29,.01,156.62,0,156.6c.02,.06,4.42-15.93,13.71-31.69-7.56,5.82-12.71,11.62-12.72,11.6,.02,.03,4.29-9.21,12.09-18.9-2,4.07-2.9,6.9-2.9,6.89-.3-.25,19.91-16.83,35.3-15.01,3.8,.32,10.47,4.84,17.9,11.32-7.69-5.12-14.88-8.73-19.11-9.05-7.47-.66-18.99,4.65-27.87,11.14Z"/>
          <path class="cls-2" d="M50.62,141.29s.06,0,.1-.01c.12-.01,.25-.03,.38-.04,.1-.01,.2-.02,.31-.03,.08,0,.16-.02,.24-.02,.16-.02,.32-.03,.48-.05,.06,0,.12,0,.18-.02,.19-.02,.37-.03,.56-.05,.05,0,.1,0,.16-.01,.2-.02,.41-.03,.62-.04,.04,0,.08,0,.12,0,.22-.01,.45-.03,.68-.04,.08,0,.16,0,.25-.01,.19,0,.37-.02,.57-.03h0s0,0,.01,0c6.84-.16,14.7,.8,21.36,2.02-4.49-2.8-9.27-5.16-13.86-6.19-1.78-.4-3.54-.85-5.29-1.37-2.28-.68-4.04-1.02-5.17-1-8.76-.06-20.05,6.3-28.37,13.27-8.45,6.87-13.93,14.35-13.98,14.26,0,0-.1-5.32,.4-13.07-.73,3.36-1.32,6.61-1.79,9.6,0,.04-.01,.07-.02,.11-.05,.29-.09,.58-.14,.87-.01,.09-.03,.19-.04,.28-.04,.25-.08,.5-.11,.74-.02,.13-.04,.25-.06,.38-.03,.22-.06,.44-.09,.66-.02,.15-.04,.29-.06,.44-.03,.2-.06,.39-.08,.59-.02,.16-.04,.31-.06,.47-.02,.18-.05,.36-.07,.53-.02,.16-.04,.33-.07,.49-.02,.17-.04,.33-.06,.49-.02,.16-.04,.33-.06,.49-.02,.16-.04,.31-.06,.47-.02,.16-.04,.32-.06,.48-.02,.15-.04,.29-.05,.44-.02,.15-.04,.31-.05,.46-.02,.15-.03,.29-.05,.43-.02,.14-.03,.28-.05,.42-.02,.14-.03,.28-.05,.42-.01,.13-.03,.25-.04,.37-.02,.15-.03,.29-.05,.43-.01,.11-.02,.22-.03,.33-.01,.14-.03,.28-.04,.42,0,.1-.02,.19-.03,.28-.01,.15-.03,.29-.04,.43,0,.07-.01,.14-.02,.21-.01,.15-.03,.3-.04,.45,0,.05,0,.1-.01,.15-.01,.16-.03,.31-.04,.46,0,.02,0,.04,0,.07-.15,1.61-.2,2.53-.21,2.52-.05,.02,8.24-13.3,19.19-22.56-8.14,9.58-13.43,20.13-13.43,20.11,.04,.08,4.89-7.45,12.34-14.75,7.33-7.38,17.24-14.53,24.65-15.56,.2-.03,.41-.06,.62-.09,.18-.03,.37-.05,.56-.07Z"/>
        </g>
        <path class="cls-11" d="M75.1,120.23c-8.16-9.11-17.04-17.65-23.21-21.53-.14-.08-.29-.17-.43-.25,8.43,7.82,17,16.56,25.23,26.44,2.57,3.09,8.21,6.77,8.21,6.77-2.98-3.66-6.32-7.59-9.8-11.43Z"/>
      </g>
    </g>
    <text class="cls-17" transform="translate(621.07 249.6)"><tspan x="0" y="0">check </tspan><tspan class="cls-25" x="46.26" y="0">y</tspan><tspan class="cls-29" x="54.83" y="0">our </tspan><tspan class="cls-26" x="83.8" y="0">w</tspan><tspan class="cls-19" x="96.71" y="0">all</tspan><tspan class="cls-20" x="115.94" y="0">e</tspan><tspan class="cls-29" x="124.27" y="0">t ma</tspan><tspan class="cls-33" x="158.19" y="0">t</tspan><tspan class="cls-4" x="164.37" y="0">e</tspan><tspan class="cls-32" x="172.71" y="0">y</tspan><tspan x="180.49" y="0">, </tspan><tspan class="cls-25" x="189.03" y="0">y</tspan><tspan x="197.6" y="0">our booty will arri</tspan><tspan class="cls-25" x="331.77" y="0">v</tspan><tspan x="340.34" y="0">e </tspan><tspan class="cls-25" x="352.45" y="0">v</tspan><tspan x="361.02" y="0">err</tspan><tspan class="cls-3" x="383.08" y="0">r</tspan><tspan x="389.82" y="0">y soon!</tspan></text>
  </g>
</svg>