<?xml version="1.0" encoding="UTF-8"?>
<svg id="Layer_2" data-name="Layer 2" xmlns="http://www.w3.org/2000/svg" viewBox="0 0 285.06 350.94">
  <defs>
    <style>
      .cls-1 {
        opacity: .1;
      }

      .cls-2 {
        fill: #6a4f4d;
      }

      .cls-3, .cls-4, .cls-5, .cls-6 {
        fill: #fff;
      }

      .cls-7 {
        fill: #ff9e2e;
      }

      .cls-8, .cls-9 {
        fill: #ffe7d4;
      }

      .cls-10 {
        fill: #ffc82e;
      }

      .cls-11 {
        fill: #51364d;
      }

      .cls-12 {
        fill: #e75400;
      }

      .cls-12, .cls-9, .cls-4, .cls-13 {
        opacity: .2;
      }

      .cls-5 {
        opacity: .6;
      }

      .cls-14 {
        fill: #d04000;
      }

      .cls-14, .cls-6 {
        opacity: .4;
      }
    </style>
  </defs>
  <g id="Ebene_1" data-name="Ebene 1">
    <g>
      <path class="cls-1" d="M135.67,307.19c63.78,0,149.39,14.43,149.39,19.62s-85.6,9.39-149.39,9.39S0,331.99,0,326.8s71.89-19.62,135.67-19.62Z"/>
      <path class="cls-10" d="M196.58,248.25c2.48,.13,4.88-.11,7.18-.8,2.81-2.04,4.64-5,4.75-9.11,.02-.81-.02-1.64-.13-2.49,.87,2.06,1.37,4.05,1.32,5.82-.04,1.39-.41,2.56-1.04,3.54,.59-.38,1.16-.79,1.73-1.24,1.33-1.05,2.56-2.29,3.72-3.69-1.45,4.28-3.41,7.8-5.92,10.14,4.04-1.43,7.34-3.51,9.32-6.47,1.06-1.58,1.98-3.32,2.77-5.18-.28,5.35-1.46,10.03-3.79,13.51-.28,.42-.61,.82-.97,1.19,6.1-.82,11.3-2.8,14.7-6.45,1.7-1.82,3.24-3.87,4.64-6.11-1.42,6.92-3.89,12.76-7.61,16.76-2.58,2.77-6.61,4.05-11.44,4.26,10.88,4.05,20.38,9.28,23.27,15.02,2.13,4.22,2.59,8.86,1.82,13.61-.58-2.01-1.34-3.99-2.31-5.91-4.02-7.98-16.98-15.71-30.45-21.74,2.6,2.17,4.53,4.4,5.51,6.65,1.89,4.35,2.11,9.01,1.08,13.7-.47-2.05-1.12-4.07-1.98-6.05-2.81-6.45-11.13-13.12-20.91-19.02l4.76-9.93Z"/>
      <g>
        <polygon class="cls-7" points="71.77 266.36 96.44 318.08 94.41 319.1 64 266.36 71.77 266.36"/>
        <polygon class="cls-6" points="95.3 318.66 94.41 319.1 64 266.36 95.3 318.66"/>
        <polygon class="cls-14" points="81.43 293.07 83.53 292.28 71.77 266.36 91.47 307.66 91.47 307.66 91.72 308.19 91.72 308.19 93.74 312.43 93.74 312.43 93.91 312.78 96.44 318.08 95.47 318.57 92.89 312.89 92.45 312.92 92.84 312.78 90.79 308.26 89.7 308.33 90.66 307.97 89.1 304.54 87.56 304.64 88.91 304.13 87.32 300.63 85.01 300.78 87.05 300.01 85.58 296.78 83.32 296.93 85.3 296.18 83.82 292.91 81.43 293.07"/>
        <path class="cls-10" d="M69.28,258.77c7.3-2.61,16.85-.14,19.46,7.16,1.67,4.68,1.14,13.17-1.38,19.35-2.52,6.19-10.33,8.36-15.48,4.09-.12-.1-.23-.19-.34-.29-4.17-3.74-7.76-9.55-9.25-13.71-2.61-7.3-.31-13.99,6.99-16.6Z"/>
        <path class="cls-5" d="M74.9,288.16c.19,.17,.39,.34,.59,.5,1.43,1.19,2.99,2.08,4.61,2.7-2.78,.6-5.79,.02-8.22-1.99-.12-.1-.23-.19-.34-.29-4.17-3.74-7.76-9.55-9.25-13.71-.69-1.94-1.04-3.84-1.03-5.63,3.12,6.29,8.08,13.43,13.65,18.42Z"/>
        <path class="cls-7" d="M72.31,324.44c7.7-11.2,24.64-9.98,41.17-3.93-8.29-1.05-16.12-.89-23,.85-.61,4.7,.15,9.43,2.63,14.11,.89,1.69,1.99,3.33,3.28,4.93-4.7-2.92-8.34-6.27-10.3-9.97-.75-1.41-1.23-2.84-1.47-4.26-2.19,5.02-2.92,10.53-1.8,16.55,.42,2.25,1.09,4.52,1.99,6.8-4.34-5.02-7.31-10.14-8.23-15.08-.4-2.13-.4-4.16-.05-6.08-1.96,1.68-3.72,3.63-5.27,5.87-1.3,1.89-2.41,3.95-3.36,6.15,.2-6.28,1.56-11.81,4.41-15.96Z"/>
        <path class="cls-14" d="M70.98,333.68c.93-1.68,2.42-3.82,5.55-5.32-1.96,1.68-3.72,3.63-5.27,5.87-1.3,1.89-2.41,3.95-3.36,6.15,.95-2.21,2.19-5.09,3.08-6.71Z"/>
        <path class="cls-14" d="M84.81,349.52c-.9-2.28-2.52-5.04-3.02-6.84-1.13-4.04-1.21-11,2.83-16.52-2.19,5.02-2.92,10.53-1.8,16.55,.42,2.25,1.09,4.52,1.99,6.8Z"/>
        <path class="cls-14" d="M93.11,335.46c-2.47-4.67-4.99-10.3-4.38-15,6.88-1.74,16.46-1.01,24.75,.04-8.29-1.05-16.12-.89-23,.85-.61,4.7,.15,9.43,2.63,14.11Z"/>
        <path class="cls-6" d="M67.9,340.39c.2-6.28,1.85-9.63,4.71-13.78,4.6-6.69,14.09-10.16,24.66-10.25-10.52-1.35-19.8,.58-24.95,8.07-2.85,4.15-4.21,9.67-4.41,15.96Z"/>
      </g>
      <g>
        <polygon class="cls-7" points="170.05 267.78 194.72 319.5 192.69 320.52 162.28 267.78 170.05 267.78"/>
        <polygon class="cls-6" points="193.58 320.07 192.69 320.52 162.28 267.78 193.58 320.07"/>
        <polygon class="cls-14" points="179.71 294.49 181.81 293.7 170.05 267.78 189.75 309.08 189.75 309.08 190 309.61 190 309.61 192.03 313.85 192.03 313.85 192.19 314.2 194.72 319.5 193.75 319.99 191.17 314.31 190.73 314.34 191.12 314.2 189.07 309.68 187.98 309.75 188.94 309.39 187.38 305.96 185.84 306.06 187.19 305.55 185.6 302.05 183.29 302.2 185.33 301.43 183.86 298.19 181.61 298.35 183.59 297.6 182.1 294.33 179.71 294.49"/>
        <path class="cls-7" d="M213.23,325.85c-7.7-11.2-24.64-9.98-41.17-3.93,8.29-1.05,16.12-.89,23,.85,.61,4.7-.15,9.43-2.63,14.11-.89,1.69-1.99,3.33-3.28,4.93,4.7-2.92,8.34-6.27,10.3-9.97,.75-1.41,1.23-2.84,1.47-4.26,2.19,5.02,2.92,10.53,1.8,16.55-.42,2.25-1.09,4.52-1.99,6.8,4.34-5.02,7.31-10.14,8.23-15.08,.4-2.13,.4-4.16,.05-6.08,1.96,1.68,3.72,3.63,5.27,5.87,1.3,1.89,2.41,3.95,3.36,6.15-.2-6.28-1.56-11.81-4.41-15.96Z"/>
        <path class="cls-14" d="M214.56,335.1c-.93-1.68-2.42-3.82-5.55-5.32,1.96,1.68,3.72,3.63,5.27,5.87,1.3,1.89,2.41,3.95,3.36,6.15-.95-2.21-2.19-5.09-3.08-6.71Z"/>
        <path class="cls-14" d="M200.73,350.94c.9-2.28,2.52-5.04,3.02-6.84,1.13-4.04,1.21-11-2.83-16.52,2.19,5.02,2.92,10.53,1.8,16.55-.42,2.25-1.09,4.52-1.99,6.8Z"/>
        <path class="cls-14" d="M192.42,336.88c2.47-4.67,4.99-10.3,4.38-15-6.88-1.74-16.46-1.01-24.75,.04,8.29-1.05,16.12-.89,23,.85,.61,4.7-.15,9.43-2.63,14.11Z"/>
        <path class="cls-6" d="M213.23,325.85c-5.15-7.49-14.43-9.42-24.95-8.07,10.57,.09,20.06,3.56,24.66,10.25,2.85,4.15,4.51,7.5,4.71,13.78-.2-6.28-1.56-11.81-4.41-15.96Z"/>
        <path class="cls-10" d="M186.78,280.48c-1.02,8.81-10.23,14.37-18.32,10.75-.18-.08-.36-.17-.54-.26-6.66-3.29-13.32-9.43-16.71-14.23-5.93-8.41-5.39-17.77,3.02-23.71,8.41-5.93,21.49-6.19,27.43,2.22,3.8,5.39,6.15,16.43,5.13,25.23Z"/>
        <path class="cls-1" d="M175.97,256.25c-2.59-3.67-6.21-6.09-10.29-7.41,6.19-.58,12.39,1.33,15.97,6.41,3.8,5.39,6.15,16.43,5.13,25.23-.37,3.19-1.81,5.94-3.88,8,1.01-11.45-2.06-25.33-6.93-32.22Z"/>
        <path class="cls-5" d="M148.64,259.4c.33,3.9,1.75,7.95,4.22,11.91,4.01,6.45,12.16,14.89,20.52,19.64,.23,.13,.45,.25,.68,.37,.61,.32,1.22,.59,1.84,.82-2.41,.43-4.98,.19-7.44-.91-.18-.08-.36-.17-.54-.26-6.66-3.29-13.32-9.43-16.71-14.23-4.1-5.81-5.1-12.07-2.56-17.35Z"/>
      </g>
      <path class="cls-10" d="M46.51,89.85c-3.57-4.08-5.78-9.16-6.06-15.02-.78-15.62,13.84-31.12,32.81-31.08,3.54,0,6.93,.53,10.09,1.5,10.06-8.75,20.6-15.29,31.22-18.64-2.65-1.85-5.69-3.29-9.16-4.23-2.26-.62-4.65-1.01-7.16-1.2,6.56-1.76,12.61-2.21,17.57-.85,.19,.05,.37,.12,.56,.17-2.33-4.38-5.21-8.47-8.68-12.22-2.83-3.05-5.99-5.8-9.45-8.28,10.55,2.34,19.49,6.63,25.69,13.32,2.97,3.2,5.2,6.83,6.78,10.8,.05,0,.1,0,.16,0,4.44-5.11,10.51-7.96,18.56-7.45,7.58,.48,16.31,3.9,25.48,9.32-3.71-.91-7.3-1.49-10.75-1.7-6.83-.43-12.81,.57-18.03,2.74,48,17.78,74.91,112.54,74.91,164.97,0,58.01-32.96,99.37-90.98,99.37S10.97,250.01,10.97,192c0-28.03,14.26-68.16,35.54-102.15Z"/>
      <path class="cls-2" d="M157.12,41.08c30.45-.05,53.92,24.81,52.67,49.89-1.22,25.22-24.69,41.51-52.67,41.6-27.98-.09-51.45-16.38-52.67-41.6-1.25-25.08,22.21-49.94,52.67-49.89Z"/>
      <path class="cls-9" d="M152.58,43.72c-7.3-.01-14.24,1.23-20.66,3.45,7.43-3.85,15.99-6.11,25.19-6.09,25.28-.04,45.73,17.08,51.25,37.24-9.02-19.42-30.26-34.64-55.78-34.6Z"/>
      <path class="cls-1" d="M157.12,41.08c4.07,0,8.01,.43,11.78,1.26-6.71-6.71-14.01-11.88-21.9-14.97,1.79,3.73,3.95,8.41,6.33,13.84,1.25-.08,2.51-.13,3.78-.13Zm-38.16,249.79c3.71,.33,7.42,.5,11.12,.5,58.01,0,90.98-41.36,90.98-99.37,0-23.39-5.36-55.21-15.56-84.86-4.48,8.66-12.15,15.45-21.7,19.83,8.86,33.63,13.11,66.92,3.95,86.53,1.25-11.76,.43-24.06-2.74-36.35-.83-3.23-1.81-6.37-2.92-9.44,2.67,12.16,3.08,26,1.02,40.3-3.19,22.11-14.33,47.21-26.95,60.84,2.53-5.66,4.78-11.57,6.72-17.67-10.4,18.15-25.17,31.87-43.89,39.69Z"/>
      <path class="cls-10" d="M157.12,41.08c30.45-.05,53.92,24.81,52.67,49.89-1.22,25.22-24.69,41.51-52.67,41.6-27.98-.09-51.45-16.38-52.67-41.6-1.25-25.08,22.21-49.94,52.67-49.89Z"/>
      <path class="cls-9" d="M152.58,43.72c-7.3-.01-14.24,1.23-20.66,3.45,7.43-3.85,15.99-6.11,25.19-6.09,25.28-.04,45.73,17.08,51.25,37.24-9.02-19.42-30.26-34.64-55.78-34.6Z"/>
      <g>
        <path class="cls-5" d="M41.2,238.31c1.71,6.77,3.8,13.28,6.22,19.46-9.78-12.06-18.41-34.26-20.88-53.83-1.6-12.65-1.28-24.9,.79-35.66-.86,2.71-1.62,5.49-2.27,8.35-2.46,10.88-3.09,21.76-2.12,32.16-5.71-11.9-7.58-26.71-4.24-41.5,3.39-14.98,31.1-58.56,37.08-70.45-3.62-1.78-6.78-4.14-9.27-6.99C25.23,123.85,10.97,163.97,10.97,192c0,46.08,38.54,81.64,83.47,94.33-22.14-10.45-41.39-27.08-53.23-48.02Z"/>
        <path class="cls-5" d="M83.36,45.25c1.58,.49,3.1,1.08,4.56,1.78,4.67-5.56,9.5-10.66,14.44-15.18-6.45,3.48-12.82,8.03-19,13.41Z"/>
      </g>
      <path class="cls-9" d="M70.44,45.39c-4.55,0-8.87,.76-12.87,2.15,4.63-2.4,9.96-3.81,15.7-3.8,15.75-.03,28.49,10.64,31.93,23.2-5.62-12.1-18.85-21.58-34.75-21.55Z"/>
      <path class="cls-8" d="M57.42,49.89c22.64-.04,40.08,18.45,39.15,37.09-.9,18.75-18.35,30.86-39.15,30.92-20.8-.06-38.24-12.18-39.15-30.92-.93-18.64,16.51-37.12,39.15-37.09Z"/>
      <path class="cls-12" d="M52.41,50.19c-16.66,4.96-28.23,20.13-27.46,35.4,.9,18.75,18.35,30.86,39.15,30.92,2.35,0,4.65-.18,6.89-.48-4.24,1.21-8.81,1.86-13.56,1.87-20.8-.06-38.24-12.18-39.15-30.92-.86-17.24,13.99-34.34,34.13-36.79Z"/>
      <path class="cls-8" d="M162.18,47.73c30.45-.05,53.92,24.81,52.67,49.89-1.22,25.22-24.69,41.51-52.67,41.6-27.98-.09-51.45-16.38-52.67-41.6-1.25-25.08,22.21-49.94,52.67-49.89Z"/>
      <path class="cls-12" d="M149.32,135.16c27.98-.09,51.45-17.36,52.67-44.09,.66-13.96-5.51-27.86-15.92-37.9,17.92,8.68,29.68,26.51,28.78,44.45-1.22,25.22-24.69,41.51-52.67,41.6-9.62-.03-18.7-1.97-26.53-5.54,4.37,.95,8.96,1.46,13.67,1.47Z"/>
      <path class="cls-11" d="M132.64,77.87c-.05,.52-.08,1.04-.08,1.57,0,8.67,7.02,15.69,15.69,15.69s15.69-7.02,15.69-15.69-7.02-15.69-15.69-15.69c-1.27,0-2.49,.17-3.67,.45,4.04-2.31,8.71-3.64,13.7-3.64,15.27,0,27.64,12.38,27.64,27.64s-12.38,27.64-27.64,27.64-27.64-12.38-27.64-27.64c0-3.66,.72-7.14,2.01-10.34Z"/>
      <g>
        <circle class="cls-3" cx="174.64" cy="109.22" r="4.18"/>
        <circle class="cls-3" cx="180.12" cy="113.4" r="1.3"/>
      </g>
      <path class="cls-11" d="M73.2,73.14c-.23-.06-.46-.11-.69-.14-3.86-.59-7.47,2.07-8.05,5.93-.59,3.86,2.07,7.47,5.93,8.05,3.86,.59,7.47-2.07,8.05-5.93,.09-.56,.09-1.12,.05-1.67,.76,1.96,1.03,4.13,.69,6.35-1.03,6.8-7.39,11.48-14.19,10.45-6.8-1.03-11.48-7.39-10.45-14.19,1.03-6.8,7.39-11.48,14.19-10.45,1.63,.25,3.14,.8,4.47,1.59Z"/>
      <g>
        <path class="cls-3" d="M75.69,94.36c-1,0-1.81-.81-1.81-1.81s.81-1.81,1.81-1.81,1.81,.81,1.81,1.81-.81,1.81-1.81,1.81Z"/>
        <path class="cls-3" d="M78.06,94.93c-.31,0-.56-.25-.56-.56s.25-.56,.56-.56,.56,.25,.56,.56-.25,.56-.56,.56Z"/>
      </g>
      <path class="cls-7" d="M123.63,136.93c.11,.05,10.26,14.23-5.12,12.51-6.62-.74-36.92-17.1-36.92-17.1,0,0,26.16-1.56,42.04,4.59Z"/>
      <path class="cls-1" d="M90.92,137.24c-5.37-2.77-9.33-4.91-9.33-4.91,0,0,26.16-1.56,42.04,4.59-7.41-1.72-19.58-1.14-32.71,.31Z"/>
      <path class="cls-1" d="M117.67,147.34c8.65,.97,9.23-3.1,8.05-6.85,1.92,4.09,3.1,10.1-7.22,8.95-3.52-.39-13.75-5.21-22.55-9.63,9.72,3.82,18.93,7.22,21.72,7.53Z"/>
      <path class="cls-7" d="M61.48,108.16c7.68-6.22,19.1,18.85,32.73,12.27,13.64-6.58,29.34,16.54,29.41,16.5-18.58-4.32-55.02-.04-73.6,1.84-.11-.09,5.45-25.94,11.45-30.61Z"/>
      <path class="cls-6" d="M61.48,108.16c7.68-6.22,19.1,18.85,32.73,12.27,7.02-3.39,14.58,1.09,20.28,6.23-6.23-4.09-14.1-7.17-20.21-4.23-13.63,6.57-24.22-11.62-31.9-5.4-6,4.67-12.46,21.64-12.35,21.73-.11-.09,5.45-25.94,11.45-30.61Z"/>
      <path class="cls-4" d="M54.5,121.91c2.03-5.85,4.62-11.31,7.47-12.76,8.72-4.43,18.38,18.73,32.02,12.15,6.02-2.9,12.93-.13,18.78,3.87-5.45-4.45-12.22-7.79-18.55-4.74-13.63,6.57-25.05-18.49-32.73-12.27-2.54,1.98-5,7.75-6.99,13.75Z"/>
      <path class="cls-13" d="M103.35,123.91s1.38,1.55-.45,1.53c-.79,0-4.54-1.56-4.54-1.56,0,0,3.05-.5,4.99,.03Z"/>
    </g>
  </g>
</svg>