<?xml version="1.0" encoding="UTF-8"?>
<svg id="Layer_2" data-name="Layer 2" xmlns="http://www.w3.org/2000/svg" viewBox="0 0 209.18 110.67">
  <defs>
    <style>
      .cls-1, .cls-2 {
        fill: #fff;
        stroke: #414042;
        stroke-miterlimit: 10;
      }

      .cls-2 {
        stroke-width: .75px;
      }
    </style>
  </defs>
  <g id="Layer_1-2" data-name="Layer 1">
    <g>
      <path class="cls-1" d="M20.2,57.29l-6.58,20.57c-.12,.6-.48,.84-1.2,.84H1.42c-.84,0-1.08-.36-.84-1.08L24.14,7.32c.36-1.2,.72-2.27,.84-6.1,0-.48,.24-.72,.72-.72h15.54c.6,0,.72,.12,.84,.6l26.18,76.64c.24,.6,.12,.96-.6,.96h-12.43c-.6,0-.84-.24-1.08-.72l-6.82-20.69H20.2Zm23.67-12.2c-2.39-8.01-8.01-24.87-10.16-33.24h-.12c-1.91,7.89-6.34,22-9.92,33.24h20.21Z"/>
      <path class="cls-1" d="M94.56,36.73L124.34,1.22c.48-.6,.72-.72,1.44-.72h12.79c.96,0,1.07,.6,.6,1.2l-30.73,35.63c-.36,.36-.36,.6,0,1.08l33.12,39.1c.48,.6,.12,1.2-.48,1.2h-14.11c-.84,0-1.31-.12-1.91-.84l-30.49-35.99v35.87c0,.72-.24,.96-.96,.96h-11.48c-.72,0-.96-.24-.96-1.08V1.34c0-.6,.12-.84,.84-.84h11.72c.6,0,.84,.24,.84,.84V36.73Z"/>
      <path class="cls-1" d="M185.19,38.4l23.32,39.1c.36,.6,.12,1.08-.6,1.2h-13.51c-.96,0-1.31-.24-1.67-.96-5.62-9.8-11.24-19.73-16.98-30.13h-.12c-5.26,10.04-10.76,20.33-16.14,30.25-.36,.6-.72,.84-1.43,.84h-12.91c-.72,0-.84-.6-.48-1.08l22.6-38.14L145.26,1.46c-.36-.48,0-.96,.48-.96h13.51c.72,0,1.08,.12,1.31,.72,5.26,9.92,11,19.73,16.14,29.65h.12c5.02-9.92,10.64-19.73,15.9-29.53,.24-.6,.48-.84,1.31-.84h12.44c.72,0,.84,.36,.48,1.08l-21.76,36.83Z"/>
    </g>
    <g>
      <path class="cls-2" d="M44.89,109.7c-.04,.21-.1,.28-.31,.28h-13.13c-.24,0-.28-.07-.28-.28v-22.16c0-.21,.04-.28,.24-.28h12.71c.21,0,.28,.03,.31,.21l.35,3.02c.04,.17-.04,.31-.24,.31h-9.48v5.8h8.61c.14,0,.24,.07,.24,.24v3.06c0,.21-.1,.24-.28,.24h-8.58v6.29h10.07c.21,0,.24,.07,.21,.24l-.45,3.02Z"/>
      <path class="cls-2" d="M64.48,109.32c0,.21-.07,.35-.24,.38-1.04,.45-2.67,.59-4.48,.59-6.04,0-11.36-3.61-11.36-11.63,0-6.98,4.65-11.74,11.88-11.74,2.08,0,3.4,.17,4.2,.56,.14,.07,.21,.17,.21,.38v3.09c0,.24-.14,.24-.28,.21-1.01-.49-2.46-.73-4.2-.73-4.69,0-7.74,3.13-7.74,8.09,0,6.25,4.34,8.27,7.78,8.27,1.63,0,2.81-.14,3.99-.56,.14-.03,.24-.03,.24,.17v2.92Z"/>
      <path class="cls-2" d="M87.98,98.45c.04,7.36-4.1,11.84-10.14,11.84-6.36,0-10.14-4.79-10.14-11.74s4.13-11.63,10.17-11.63c6.39,0,10.07,5.04,10.11,11.53Zm-10,8.37c3.79,0,5.97-3.26,5.97-8.27-.04-4.97-2.29-8.13-6.15-8.13-3.51,0-6.08,2.81-6.08,8.13,0,4.62,2.15,8.27,6.25,8.27Z"/>
      <path class="cls-2" d="M92.25,109.11c-.17-.1-.24-.24-.24-.49v-3.37c0-.17,.14-.24,.28-.14,1.77,1.15,3.89,1.7,5.83,1.7,2.81,0,3.99-1.18,3.99-2.74,0-1.32-.8-2.33-3.44-3.54l-1.53-.69c-4.06-1.84-5.1-3.96-5.1-6.53,0-3.61,2.67-6.39,7.67-6.39,2.15,0,3.96,.31,5.04,.87,.14,.07,.17,.21,.17,.42v3.16c0,.14-.1,.28-.28,.14-1.25-.73-3.06-1.11-4.93-1.11-2.95,0-3.89,1.35-3.89,2.6s.76,2.22,3.44,3.44l1.28,.56c4.31,1.94,5.52,4.1,5.52,6.74,0,3.96-3.06,6.56-8.06,6.56-2.36,0-4.41-.42-5.76-1.18Z"/>
      <path class="cls-2" d="M107.84,87.58c-.14-.21,.04-.31,.17-.31h3.89c.21,0,.24,.07,.31,.17,3.54,7.02,4.69,9.31,5.21,10.52,.52-1.25,1.63-3.61,5-10.52,.07-.14,.14-.17,.31-.17h3.72c.17,0,.21,.1,.14,.24l-7.22,13.34c-.21,.35-.28,.62-.28,1.01v7.85c0,.21-.03,.28-.28,.28h-3.3c-.24,0-.31-.07-.31-.28v-7.95c0-.45-.03-.66-.24-1.04l-7.12-13.13Z"/>
      <path class="cls-2" d="M129.23,109.11c-.17-.1-.24-.24-.24-.49v-3.37c0-.17,.14-.24,.28-.14,1.77,1.15,3.89,1.7,5.83,1.7,2.81,0,3.99-1.18,3.99-2.74,0-1.32-.8-2.33-3.44-3.54l-1.53-.69c-4.06-1.84-5.1-3.96-5.1-6.53,0-3.61,2.67-6.39,7.67-6.39,2.15,0,3.96,.31,5.04,.87,.14,.07,.17,.21,.17,.42v3.16c0,.14-.1,.28-.28,.14-1.25-.73-3.06-1.11-4.93-1.11-2.95,0-3.89,1.35-3.89,2.6s.76,2.22,3.44,3.44l1.29,.56c4.31,1.94,5.52,4.1,5.52,6.74,0,3.96-3.06,6.56-8.06,6.56-2.36,0-4.41-.42-5.76-1.18Z"/>
      <path class="cls-2" d="M152.08,90.81h-6.7c-.17,0-.21-.1-.17-.28l.42-3.02c.03-.17,.1-.24,.31-.24h16.36c.21,0,.28,.07,.31,.28l.31,2.95c.03,.21-.07,.31-.24,.31h-6.67v18.86c0,.21-.1,.31-.28,.31h-3.33c-.21,.03-.31-.07-.31-.28v-18.89Z"/>
      <path class="cls-2" d="M180.24,109.7c-.04,.21-.1,.28-.31,.28h-13.13c-.24,0-.28-.07-.28-.28v-22.16c0-.21,.03-.28,.24-.28h12.71c.21,0,.28,.03,.31,.21l.35,3.02c.04,.17-.04,.31-.24,.31h-9.48v5.8h8.61c.14,0,.24,.07,.24,.24v3.06c0,.21-.1,.24-.28,.24h-8.58v6.29h10.07c.21,0,.24,.07,.21,.24l-.45,3.02Z"/>
      <path class="cls-2" d="M186.21,87.27h5.17c.21,0,.24,.03,.31,.21,1.01,3.44,3.99,13.89,4.65,17.16h.04c.73-2.99,4.13-13.61,5.17-17.12,.03-.17,.1-.24,.28-.24h5.04c.17,0,.21,.03,.24,.21l.94,22.23c.03,.21-.07,.28-.24,.28h-3.54c-.17,0-.24-.03-.24-.24-.21-7.47-.28-17.47-.24-19.55h-.07c-.73,3.19-4.24,14.83-5.63,19.55-.03,.21-.17,.24-.31,.24h-3.23c-.21,0-.28-.03-.31-.24-1.46-5.28-4.2-15.56-5.14-19.59h-.07c0,3.23-.35,12.22-.66,19.59,0,.21-.07,.24-.28,.24h-3.19c-.21,0-.28-.03-.24-.24l1.32-22.26c0-.21,.1-.21,.24-.21Z"/>
    </g>
  </g>
</svg>